<svg width="27" height="27" viewBox="0 0 27 27" fill="none" xmlns="http://www.w3.org/2000/svg">
<path d="M26.7545 25.623L20.1931 19.0616C21.9532 17.0381 23.0188 14.398 23.0188 11.5124C23.0188 5.16053 17.8583 0 11.5124 0C5.15454 0 0 5.16652 0 11.5124C0 17.8583 5.16652 23.0248 11.5124 23.0248C14.398 23.0248 17.0381 21.9592 19.0616 20.1991L25.6171 26.7605C25.7727 26.9162 25.9822 27 26.1858 27C26.3893 27 26.5989 26.9222 26.7545 26.7605C27.0658 26.4492 27.0658 25.9344 26.7545 25.623ZM1.61042 11.5124C1.61042 6.05255 6.04656 1.61641 11.5004 1.61641C16.9603 1.61641 21.3964 6.05853 21.3964 11.5124C21.3964 16.9663 16.9603 21.4144 11.5004 21.4144C6.05255 21.4144 1.61042 16.9723 1.61042 11.5124Z" fill="#FF64A0"/>
</svg>
