<?xml version="1.0" encoding="utf-8"?>
<!-- Generator: Adobe Illustrator 27.0.0, SVG Export Plug-In . SVG Version: 6.00 Build 0)  -->
<svg version="1.1" id="Capa_2_00000129199945877562796240000003328677951539429270_"
	 xmlns="http://www.w3.org/2000/svg" xmlns:xlink="http://www.w3.org/1999/xlink" x="0px" y="0px" viewBox="0 0 8192 4233.3"
	 style="enable-background:new 0 0 8192 4233.3;" xml:space="preserve">
<style type="text/css">
	.st0{fill:#FFFFFF;}
</style>
<g id="Final">
	<path class="st0" d="M310.7,3283.8V1226.7l-63-63H63l-63,63v2212.5l155.3,155.3h1070.9l63-67.2v-180.5l-63-63L310.7,3283.8
		L310.7,3283.8z M2192.5,1738.8l-63,63l-54.4,1482H1850l-164.6-1481.6l-64.8-63.4l-385.8,0.1l-63.2,63.2l-147.1,1325l63.2,63.2
		h173.9l63.2-63.2l84.5-951.8h37.2l117.1,1355l63.2,63.2l690.3,0.8l63-67.2v-88.2l60.1-1637.3l-63-63L2192.5,1738.8L2192.5,1738.8z
		 M1419.9,1495.3c109.1,0,226.7-88.2,226.7-235.1c0-126-109.2-226.7-226.7-226.7c-146.9,0-235.1,105-235.1,226.7
		C1184.8,1398.8,1281.3,1495.3,1419.9,1495.3z M7113,1327.4l-63,63v184.7l63,63c428.2,0,768.3,323.3,768.3,764.1
		c0,536.4-386.4,774.4-625.5,870.3V2167.1l-63-63h-184.7l-63,63l-0.1,115.7c0,546.4-388.5,1002.5-902,1002.5
		c-137.9,0-268.9-31-378.9-79.8h-67.1l-176.5,158v66.8c182,105.6,396.3,164.9,628.7,164.9c417.1,0,752.8-225.4,895.4-410.5
		l-0.2,385.2l63.2,61.7l122.2,0.6c0,0,1062.1-209.9,1062.1-1230.1C8192,1793.4,7734.4,1327.4,7113,1327.4L7113,1327.4z M5573.3,3095
		l1169.9-1077.2v-101c-182.8-351-470.6-547.5-940-547.5c-566.8,0-969.8,461.8-969.8,1011.8c0,386.6,163.3,718.2,426,936.7h65.1
		L5573.3,3095L5573.3,3095L5573.3,3095z M5288.6,2886c-90.4-138.7-144.5-309.3-144.5-504.9c0-365.2,268.7-696.9,659.1-701.1
		c226.8-3,419.6,81,516.7,227.8v88c-232,232.3-689.5,643.8-966.3,890.1L5288.6,2886L5288.6,2886z M4669.3,1520.5l-151.1-155.3
		l-84,12.6l-582.7,536.6l45.3-1250.3l-63-63h-184.7l-63,63l-95,2619.7h-207.8l-165.1-1366.1l-215-224.5l-84,13.3L2549,1966.7
		l-10.8,299.3l63.1,63.2l227-208.3L2990,3451.7l155.3,142.7h587.8l63-67.2v-84l39.7-1095.3l816.7-747.7L4669.3,1520.5L4669.3,1520.5
		z M4265.7,2088.5l-167.1,149l-5.8,88.9L4697.4,3567l84.2,29.1l166.2-80.7l29.1-84.2l-622.3-1337.1L4265.7,2088.5L4265.7,2088.5z"/>
</g>
</svg>
