<?xml version="1.0" encoding="UTF-8"?><svg id="Capa_2" xmlns="http://www.w3.org/2000/svg" viewBox="0 0 11441.14 4233.33"><defs><style>.cls-1{fill:#8a8f9c;}</style></defs><g id="Final"><path class="cls-1" d="M433.89,3746.69V873.65l-87.95-87.95H87.95L0,873.65V3963.62l216.93,216.95H1712.55l87.95-93.82v-252.11l-87.95-87.95H433.89ZM3062.12,1588.97l-87.95,87.95-75.96,2069.76h-314.52l-229.86-2069.23-90.54-88.49-538.83,.15-88.33,88.33-205.38,1850.59,88.33,88.33h242.92l88.33-88.33,118.01-1329.28h51.95l163.49,1892.41,88.33,88.33,964.06,1.07,87.95-93.82v-123.13l83.92-2286.7-87.95-87.95h-257.98Zm-1079.08-340.06c152.43,0,316.61-123.15,316.61-328.36,0-175.91-152.45-316.61-316.61-316.61-205.23,0-328.36,146.58-328.36,316.61,0,193.48,134.86,328.36,328.36,328.36Zm7951.21-234.55l-87.95,87.95v258l87.95,87.93c598.07,0,1073.01,451.49,1073.01,1067.13,0,749.11-539.68,1081.54-873.65,1215.55v-1543.88l-87.95-87.95h-257.98l-87.95,87.95-.08,161.59c0,763.06-542.57,1400.18-1259.76,1400.18-192.6,0-375.62-43.26-529.22-111.43h-93.66l-246.45,220.71v93.28c254.13,147.43,553.54,230.35,877.99,230.35,582.51,0,1051.41-314.79,1250.49-573.32l-.26,537.98,88.33,86.13,170.63,.83s1483.42-293.16,1483.42-1717.96c0-850.18-639.12-1501.02-1506.89-1501.02Zm-2150.44,2468.69l1633.86-1504.39v-141.06c-255.3-490.26-657.23-764.59-1312.78-764.59-791.55,0-1354.44,644.97-1354.44,1413.05,0,539.93,228.09,1003.03,595,1308.17h90.94l347.42-311.14v-.04Zm-397.61-291.88c-126.21-193.69-201.86-431.96-201.86-705.11,0-510.09,375.26-973.31,920.55-979.16,316.74-4.18,586.07,113.11,721.68,318.16v122.93c-324.02,324.41-963.01,899.09-1349.58,1243.17h-90.79Zm-864.94-1907.08l-211.08-216.95-117.26,17.6-813.82,749.41,63.3-1746.19L5354.44,0h-257.98l-87.95,87.95-132.63,3658.74h-290.21l-230.62-1907.96-300.33-313.58-117.32,18.63-377.34,363.41-15.05,418,88.12,88.21,316.98-290.92,225.81,1858.75,216.96,199.35h820.87l87.95-93.82v-117.26l55.45-1529.75,1140.66-1044.25,23.45-111.4Zm-563.73,793.22l-233.41,208.13-8.12,124.12,844.49,1732.74,117.53,40.71,232.08-112.66,40.71-117.53-869.16-1867.38-124.12-8.12Z"/></g></svg>