<?xml version="1.0" encoding="UTF-8"?><svg id="Capa_2" xmlns="http://www.w3.org/2000/svg" xmlns:xlink="http://www.w3.org/1999/xlink" viewBox="0 0 22.26 22.24"><defs><style>.cls-1{fill:none;}.cls-2{clip-path:url(#clippath);}.cls-3{fill:#fff;}</style><clipPath id="clippath"><rect class="cls-1" width="22.26" height="22.24"/></clipPath></defs><g id="Graphic_Elements"><g class="cls-2"><path class="cls-3" d="M4.94,6.89c1.07,0,1.93-.85,1.94-1.92,0-1.08-.86-1.95-1.93-1.95-1.08,0-1.93,.86-1.93,1.94,0,1.07,.85,1.92,1.93,1.92m-1.68,6.76c0,1.7,0,3.4,0,5.1,0,.17,.04,.25,.23,.25,.97,0,1.94,0,2.91,0,.17,0,.22-.07,.22-.23,0-3.41,0-6.81,0-10.22,0-.19-.07-.23-.24-.23-.96,0-1.91,.01-2.87,0-.21,0-.25,.06-.25,.26,0,1.69,0,3.39,0,5.08m8.61-3.95c0-.38,0-.76,0-1.14,0-.19-.06-.25-.25-.25-.9,0-1.8,0-2.71,0-.28,0-.28,0-.28,.27,0,3.38,0,6.76,0,10.14,0,.21,.07,.27,.27,.27,.94,0,1.87,0,2.81,0,.28,0,.28,0,.28-.27,0-1.7,0-3.4,0-5.1,0-.35,.03-.71,.09-1.05,.13-.72,.46-1.3,1.23-1.49,.23-.06,.48-.07,.72-.07,.79,.01,1.29,.38,1.46,1.15,.1,.43,.14,.88,.14,1.32,.02,1.75,0,3.5,0,5.25,0,.21,.06,.28,.27,.27,.94,0,1.87,0,2.81,0,.2,0,.27-.05,.27-.27,0-2.03,.02-4.05-.02-6.08-.01-.67-.1-1.36-.25-2.01-.27-1.18-.96-2.04-2.17-2.38-.41-.12-.86-.15-1.29-.2-.73-.09-1.42,.06-2.07,.41-.55,.3-.98,.72-1.35,1.23M11.12,0C14.28,0,17.44,.02,20.6,0c.84,0,1.52,.6,1.64,1.34,.01,.08,.02,.16,.02,.25,0,6.36,0,12.72,0,19.07,0,.84-.67,1.54-1.51,1.58-.06,0-.11,0-.17,0H1.67c-.79,0-1.39-.42-1.6-1.14-.04-.15-.07-.31-.07-.47C0,14.29,0,7.95,0,1.62,0,.72,.68,.02,1.58,0,2.35,0,3.11,0,3.88,0h7.25"/></g></g></svg>